<?xml version="1.0" encoding="UTF-8"?>
<svg width="58px" height="58px" viewBox="0 0 58 58" version="1.1" xmlns="http://www.w3.org/2000/svg" xmlns:xlink="http://www.w3.org/1999/xlink">
    <title>Group 5</title>
    <defs>
        <filter x="-14.4%" y="-14.4%" width="128.9%" height="128.9%" filterUnits="objectBoundingBox" id="filter-1">
            <feOffset dx="0" dy="0" in="SourceAlpha" result="shadowOffsetOuter1"></feOffset>
            <feGaussianBlur stdDeviation="1.5" in="shadowOffsetOuter1" result="shadowBlurOuter1"></feGaussianBlur>
            <feColorMatrix values="0 0 0 0 0   0 0 0 0 0   0 0 0 0 0  0 0 0 0.104102928 0" type="matrix" in="shadowBlurOuter1" result="shadowMatrixOuter1"></feColorMatrix>
            <feMerge>
                <feMergeNode in="shadowMatrixOuter1"></feMergeNode>
                <feMergeNode in="SourceGraphic"></feMergeNode>
            </feMerge>
        </filter>
    </defs>
    <g id="Welcome" stroke="none" stroke-width="1" fill="none" fill-rule="evenodd">
        <g id="Benchmark-login-1" transform="translate(-792.000000, -249.000000)">
            <g id="Group-11" transform="translate(519.496340, 87.707174)">
                <g id="Group-10" transform="translate(0.000000, 123.689605)">
                    <g id="Group" transform="translate(54.723280, 44.228404)">
                        <g id="Group-5" filter="url(#filter-1)" transform="translate(224.890190, 0.000000)">
                            <rect id="Rectangle-Copy-6" fill="#FFFFFF" x="0" y="0" width="44.9780381" height="44.9780381" rx="22.489019"></rect>
                            <g id="2962084" transform="translate(10.494876, 7.746706)" fill="#000000" fill-rule="nonzero">
                                <g id="Group" transform="translate(11.519079, 14.219826) scale(-1, 1) rotate(-180.000000) translate(-11.519079, -14.219826) translate(0.019079, 0.219826)">
                                    <path d="M16.3981437,27.7404315 C15.1039718,27.5909817 13.2724165,26.4494394 12.3629984,25.2284025 C11.8383341,24.5288502 11.5298951,23.8610956 11.2627933,22.856284 L11.1292424,22.3538782 L11.1356019,21.8196746 C11.1419615,21.5271345 11.1578604,21.2536731 11.1737593,21.2091562 C11.2150965,21.1042233 11.2945911,21.0883244 11.854233,21.0851446 C12.3184814,21.0819648 12.3470995,21.0851446 12.7445724,21.2027966 C13.8066201,21.5112356 14.5856671,21.975484 15.1389494,22.6336992 C15.2725003,22.7958681 15.4728267,23.0120934 15.5777595,23.1202061 C15.9275357,23.4636227 16.3758852,24.2267707 16.6239083,24.8881657 C16.8719314,25.5527405 16.9832238,26.1696185 17.0150217,27.0472387 L17.0341004,27.6100604 L16.951426,27.6927348 C16.8592123,27.7849485 16.8083358,27.7881283 16.3981437,27.7404315 Z" id="Path"></path>
                                    <path d="M16.1024238,21.167819 C15.4728267,21.1360211 13.778002,20.6654132 12.560145,20.1884456 C11.8224352,19.8990853 11.8224352,19.8990853 11.6761651,19.8736471 C11.4217824,19.8323099 10.7985449,20.0135576 9.72695783,20.4460081 C9.15777657,20.6717727 8.5726964,20.8434811 7.70779528,21.0406276 C7.34529996,21.1201222 6.74432087,21.1296616 6.48357862,21.0565266 C6.37864577,21.0279085 6.04794828,20.961133 5.74904863,20.9102565 C5.10673235,20.7957843 4.74423703,20.6844919 4.26090993,20.4460081 C2.80138929,19.7337366 1.80611705,18.7098463 1.01753073,17.1072354 C0.667754542,16.4013235 0.410192076,15.7113104 0.219405064,14.9767804 C-0.0635956707,13.8861147 -0.0699552377,11.7938171 0.20668593,10.5250835 C0.238483765,10.3692741 0.267101817,10.1848467 0.267101817,10.1117116 C0.267101817,9.95908202 0.295719869,9.84460982 0.562821685,8.79210147 C0.810844801,7.81908771 0.785406533,7.89858229 1.25919428,6.70934325 C1.92376904,5.0399569 2.13363475,4.67110201 3.49140232,2.79820951 C4.04786444,2.03188168 4.33086517,1.68210549 4.74105725,1.26555385 C5.17032802,0.826743718 5.51692443,0.572361036 6.00661109,0.330697487 C6.55989343,0.0604158871 6.80155698,1.73472348e-18 7.31032234,0.00306273387 C7.96217797,0.00306273387 8.48684225,0.136730692 9.48529428,0.556462118 C10.1148914,0.820384151 10.1562286,0.833103286 11.3009507,1.06840727 C11.6443673,1.14154229 11.9623456,1.13518272 12.4456727,1.05568813 C12.6110215,1.03024986 12.8590446,0.992092462 12.9925955,0.973013761 C13.2628771,0.934856359 13.5363385,0.84582242 14.2422504,0.562821685 C15.0944324,0.219405064 15.6954115,0.0667754542 16.3250087,0.0286180518 C17.2407863,-0.0286180518 18.1247661,0.37839424 19.0691618,1.28463255 C20.0326363,2.21630912 20.932515,3.49140232 21.8419331,5.21166521 C22.0867764,5.67591361 22.4778898,6.62666888 22.5446652,6.9128494 C22.5732833,7.02732161 22.6209801,7.17041187 22.6559577,7.22764797 C22.6877555,7.28488407 22.7163736,7.36437866 22.7163736,7.39935628 C22.7163736,7.51382849 22.4842494,7.69507615 22.0740573,7.90176208 C21.3013699,8.29923502 20.5414016,8.9797087 20.0294565,9.74603653 C19.6637814,10.2961391 19.2949265,11.119703 19.2027128,11.6062099 C19.0469034,12.4075153 19.0023864,13.2851356 19.0914203,13.895654 C19.1136788,14.0546432 19.1931734,14.3885205 19.2694882,14.6429032 C19.5970059,15.7462881 19.8227705,16.188278 20.3347157,16.7352007 C20.4905251,16.8973697 20.6177164,17.0468195 20.6177164,17.0595387 C20.6177164,17.113595 21.3967634,17.7654506 21.5875504,17.8703835 C21.6924833,17.9307993 21.8260342,18.0230131 21.8832703,18.0802492 C22.0581584,18.2519575 22.0327201,18.3187329 21.59391,18.8338579 C21.00565,19.5238709 20.2647605,20.0898724 19.3934998,20.5127836 C18.8497568,20.7767056 18.4745423,20.9070767 17.949878,21.0151894 C17.4124946,21.1296616 16.6111892,21.196437 16.1024238,21.167819 Z" id="Path"></path>
                                </g>
                            </g>
                        </g>
                    </g>
                </g>
            </g>
        </g>
    </g>
</svg>