<?xml version="1.0" encoding="UTF-8"?>
<svg width="86px" height="86px" viewBox="0 0 86 86" version="1.1" xmlns="http://www.w3.org/2000/svg" xmlns:xlink="http://www.w3.org/1999/xlink">
    <title>social_benchmarking</title>
    <defs>
        <filter x="-4.4%" y="-18.8%" width="108.8%" height="148.6%" filterUnits="objectBoundingBox" id="filter-1">
            <feOffset dx="0" dy="3" in="SourceAlpha" result="shadowOffsetOuter1"></feOffset>
            <feGaussianBlur stdDeviation="2" in="shadowOffsetOuter1" result="shadowBlurOuter1"></feGaussianBlur>
            <feColorMatrix values="0 0 0 0 0   0 0 0 0 0   0 0 0 0 0  0 0 0 0.12 0" type="matrix" in="shadowBlurOuter1" result="shadowMatrixOuter1"></feColorMatrix>
            <feMerge>
                <feMergeNode in="shadowMatrixOuter1"></feMergeNode>
                <feMergeNode in="SourceGraphic"></feMergeNode>
            </feMerge>
        </filter>
        <filter x="-63.6%" y="-63.6%" width="224.2%" height="224.2%" filterUnits="objectBoundingBox" id="filter-2">
            <feOffset dx="0" dy="1" in="SourceAlpha" result="shadowOffsetOuter1"></feOffset>
            <feGaussianBlur stdDeviation="4.5" in="shadowOffsetOuter1" result="shadowBlurOuter1"></feGaussianBlur>
            <feColorMatrix values="0 0 0 0 0.839215686   0 0 0 0 0.941176471   0 0 0 0 1  0 0 0 0.429769449 0" type="matrix" in="shadowBlurOuter1" result="shadowMatrixOuter1"></feColorMatrix>
            <feMerge>
                <feMergeNode in="shadowMatrixOuter1"></feMergeNode>
                <feMergeNode in="SourceGraphic"></feMergeNode>
            </feMerge>
        </filter>
    </defs>
    <g id="Welcome" stroke="none" stroke-width="1" fill="none" fill-rule="evenodd">
        <g id="Benchmark-login-3" transform="translate(-10.000000, -34.000000)">
            <g id="Group-8-Copy-3" filter="url(#filter-1)" transform="translate(20.240117, 41.979502)">
                <g id="social_benchmarking" filter="url(#filter-2)" transform="translate(16.491947, 19.490483)">
                    <g id="Group-3">
                        <line x1="16.0288887" y1="0" x2="16.0288887" y2="32.2342606" id="Stroke-1" stroke="#000000" stroke-width="0.974524158" stroke-linecap="round" stroke-linejoin="round"></line>
                        <line x1="0" y1="16.2422641" x2="32.2342606" y2="16.2422641" id="Stroke-2" stroke="#000000" stroke-width="0.974524158" stroke-linecap="round" stroke-linejoin="round"></line>
                        <line x1="27.7513502" y1="4.48291042" x2="4.48291042" y2="27.7513502" id="Stroke-3" stroke="#000000" stroke-width="0.974524158" stroke-linecap="round" stroke-linejoin="round"></line>
                        <line x1="4.48291042" y1="4.48291042" x2="27.7513502" y2="27.7513502" id="Stroke-4" stroke="#000000" stroke-width="0.974524158" stroke-linecap="round" stroke-linejoin="round"></line>
                        <path d="M16.2238536,1.7077754 C24.2354888,1.7077754 30.7399571,8.21219045 30.7399571,16.2238378 C30.7399571,24.2354852 24.2354888,30.7399571 16.2238536,30.7399571 C8.21221846,30.7399571 1.7077754,24.2354852 1.7077754,16.2238378 C1.7077754,8.21219045 8.21221846,1.7077754 16.2238536,1.7077754 Z" id="Stroke-5" stroke="#000000" stroke-width="0.974524158" stroke-linecap="round" stroke-linejoin="round"></path>
                        <path d="M16.2238663,5.97721389 C21.879185,5.97721389 26.4705187,10.6164371 26.4705187,16.3305616 C26.4705187,22.0447674 21.879185,26.6839906 16.2238663,26.6839906 C10.5685476,26.6839906 5.97721389,22.0447674 5.97721389,16.3305616 C5.97721389,10.6164371 10.5685476,5.97721389 16.2238663,5.97721389 Z" id="Stroke-7" stroke="#000000" stroke-width="0.974524158" stroke-linecap="round" stroke-linejoin="round"></path>
                        <path d="M16.1171303,11.5274839 C18.7680275,11.5274839 20.9202486,13.6796563 20.9202486,16.3305708 C20.9202486,18.9814854 18.7680275,21.1337205 16.1171303,21.1337205 C13.4662331,21.1337205 11.314012,18.9814854 11.314012,16.3305708 C11.314012,13.6796563 13.4662331,11.5274839 16.1171303,11.5274839 Z" id="Stroke-8" stroke="#000000" stroke-width="0.974524158" stroke-linecap="round" stroke-linejoin="round"></path>
                        <path d="M16.1171303,25.8301029 C16.6473312,25.8301029 17.077754,26.2605257 17.077754,26.7907265 C17.077754,27.3209274 16.6473312,27.7513502 16.1171303,27.7513502 C15.5869944,27.7513502 15.1565066,27.3209274 15.1565066,26.7907265 C15.1565066,26.2605257 15.5869944,25.8301029 16.1171303,25.8301029 Z" id="Fill-9" fill="#00C1D4"></path>
                        <path d="M19.5326811,18.5720574 C20.062882,18.5720574 20.4933048,19.0024802 20.4933048,19.5326811 C20.4933048,20.062817 20.062882,20.4933048 19.5326811,20.4933048 C19.0024802,20.4933048 18.5720574,20.062817 18.5720574,19.5326811 C18.5720574,19.0024802 19.0024802,18.5720574 19.5326811,18.5720574 Z" id="Fill-10" fill="#00C1D4"></path>
                        <path d="M26.5772546,14.9430347 C27.1074555,14.9430347 27.5378783,15.3734575 27.5378783,15.9036584 C27.5378783,16.4338592 27.1074555,16.864282 26.5772546,16.864282 C26.0470538,16.864282 25.616631,16.4338592 25.616631,15.9036584 C25.616631,15.3734575 26.0470538,14.9430347 26.5772546,14.9430347 Z" id="Fill-11" fill="#00C1D4"></path>
                        <path d="M23.3751757,7.89846121 C23.9053766,7.89846121 24.3357994,8.32888401 24.3357994,8.85908487 C24.3357994,9.38928573 23.9053766,9.81970853 23.3751757,9.81970853 C22.8449749,9.81970853 22.4145521,9.38928573 22.4145521,8.85908487 C22.4145521,8.32888401 22.8449749,7.89846121 23.3751757,7.89846121 Z" id="Fill-11-Copy" fill="#00C1D4"></path>
                        <path d="M16.1171303,4.90985427 C16.6473312,4.90985427 17.077754,5.34027707 17.077754,5.87047793 C17.077754,6.40067879 16.6473312,6.83110159 16.1171303,6.83110159 C15.5869294,6.83110159 15.1565066,6.40067879 15.1565066,5.87047793 C15.1565066,5.34027707 15.5869294,4.90985427 16.1171303,4.90985427 Z" id="Fill-13" fill="#00C1D4"></path>
                        <path d="M8.64561295,7.89846121 C9.17581381,7.89846121 9.60623661,8.32888401 9.60623661,8.85908487 C9.60623661,9.38922077 9.17581381,9.81970853 8.64561295,9.81970853 C8.11547705,9.81970853 7.68498929,9.38922077 7.68498929,8.85908487 C7.68498929,8.32888401 8.11547705,7.89846121 8.64561295,7.89846121 Z" id="Fill-14" fill="#00C1D4"></path>
                        <path d="M11.207276,14.9430347 C11.7374769,14.9430347 12.1678997,15.3734575 12.1678997,15.9036584 C12.1678997,16.4338592 11.7374769,16.864282 11.207276,16.864282 C10.6771401,16.864282 10.2466524,16.4338592 10.2466524,15.9036584 C10.2466524,15.3734575 10.6771401,14.9430347 11.207276,14.9430347 Z" id="Fill-15" fill="#00C1D4"></path>
                        <path d="M8.64561295,22.4145521 C9.17581381,22.4145521 9.60623661,22.8449749 9.60623661,23.3751757 C9.60623661,23.9053766 9.17581381,24.3357994 8.64561295,24.3357994 C8.11547705,24.3357994 7.68498929,23.9053766 7.68498929,23.3751757 C7.68498929,22.8449749 8.11547705,22.4145521 8.64561295,22.4145521 Z" id="Fill-16" fill="#00C1D4"></path>
                        <polygon id="Stroke-17" stroke="#00C1D4" stroke-width="0.974524158" stroke-linecap="round" stroke-linejoin="round" points="8.75234891 23.4555823 16.1269157 26.6839906 19.510615 19.5614949 26.4705187 15.964853 23.3554923 8.78623739 16.2167974 5.97721389 8.75234891 8.78623739 11.3231036 16.0147826"></polygon>
                    </g>
                </g>
            </g>
        </g>
    </g>
</svg>