<?xml version="1.0" encoding="UTF-8"?>
<svg width="18px" height="18px" viewBox="0 0 18 18" version="1.1" xmlns="http://www.w3.org/2000/svg" xmlns:xlink="http://www.w3.org/1999/xlink">
    <title>download-2-line (1)</title>
    <g id="Welcome" stroke="none" stroke-width="1" fill="none" fill-rule="evenodd">
        <g id="website--popup-copy" transform="translate(-661.000000, -157.000000)">
            <g id="Group-67">
                <g id="Group-65" transform="translate(237.000000, 115.000000)">
                    <g id="Group-74" transform="translate(317.000000, 31.000000)">
                        <g id="Group">
                            <g id="download-2-line-(1)" transform="translate(107.000000, 11.000000)">
                                <polygon id="Path" points="0 0 18 0 18 18 0 18"></polygon>
                                <path d="M10.25,7.44444444 L14,7.44444444 L9.5,12.1111111 L5,7.44444444 L8.75,7.44444444 L8.75,2 L10.25,2 L10.25,7.44444444 Z M3.5,14.4444444 L15.5,14.4444444 L15.5,9 L17,9 L17,15.2222222 C17,15.651777 16.6642136,16 16.25,16 L2.75,16 C2.33578644,16 2,15.651777 2,15.2222222 L2,9 L3.5,9 L3.5,14.4444444 Z" id="Shape" fill="#FFFFFF" fill-rule="nonzero"></path>
                            </g>
                        </g>
                    </g>
                </g>
            </g>
        </g>
    </g>
</svg>