<?xml version="1.0" encoding="UTF-8"?>
<svg width="17px" height="17px" viewBox="0 0 17 17" version="1.1" xmlns="http://www.w3.org/2000/svg" xmlns:xlink="http://www.w3.org/1999/xlink">
    <title>alert-line (2)</title>
    <g id="Welcome" stroke="none" stroke-width="1" fill="none" fill-rule="evenodd">
        <g id="login-4-copy" transform="translate(-697.000000, -594.000000)">
            <g id="Group-11" transform="translate(693.000000, 103.000000)">
                <g id="Group-10" transform="translate(0.000000, 206.000000)">
                    <g id="Group-8" transform="translate(0.000000, 129.000000)">
                        <g id="Group-12" transform="translate(0.000000, 84.000000)">
                            <g id="Group-6-Copy">
                                <g id="Group-19" transform="translate(4.000000, 72.000000)">
                                    <g id="alert-line-(2)">
                                        <polygon id="Path" points="0 0 17 0 17 17 0 17"></polygon>
                                        <path d="M9.11341667,2.125 L15.861,13.8125 C15.98753,14.0316563 15.9875317,14.3016676 15.8610045,14.5208255 C15.7344773,14.7399835 15.5006432,14.875 15.2475833,14.875 L1.75241667,14.875 C1.49935675,14.875 1.26552267,14.7399835 1.1389955,14.5208255 C1.01246833,14.3016676 1.01247004,14.0316563 1.139,13.8125 L7.88658333,2.125 C8.0131196,1.90585847 8.24694973,1.7708645 8.5,1.7708645 C8.75305027,1.7708645 8.9868804,1.90585847 9.11341667,2.125 Z M2.97925,13.4583333 L14.02075,13.4583333 L8.5,3.89583333 L2.97925,13.4583333 Z M7.79166667,11.3333333 L9.20833333,11.3333333 L9.20833333,12.75 L7.79166667,12.75 L7.79166667,11.3333333 Z M7.79166667,6.375 L9.20833333,6.375 L9.20833333,9.91666667 L7.79166667,9.91666667 L7.79166667,6.375 Z" id="Shape" fill="#FF5252" fill-rule="nonzero"></path>
                                    </g>
                                </g>
                            </g>
                        </g>
                    </g>
                </g>
            </g>
        </g>
    </g>
</svg>